<svg width="36" height="40" viewBox="0 0 36 40" fill="none" xmlns="http://www.w3.org/2000/svg">
<path fill-rule="evenodd" clip-rule="evenodd" d="M30 6H32C32.1847 6 32.3525 5.99859 32.5049 5.99731L32.505 5.99731C33.2602 5.99096 33.6378 5.98779 33.825 6.175C34.0122 6.36221 34.009 6.73981 34.0027 7.49501V7.49511C34.0014 7.64751 34 7.8153 34 8V36C34 36.1847 34.0014 36.3525 34.0027 36.5049V36.505C34.009 37.2602 34.0122 37.6378 33.825 37.825C33.6378 38.0122 33.2602 38.009 32.505 38.0027H32.5049C32.3525 38.0014 32.1847 38 32 38H5C4.8201 38 4.64967 38.0013 4.48833 38.0026C2.65871 38.0167 2 38.0217 2 36L1.99991 8C1.99991 7.80006 1.99809 7.61994 1.99646 7.45769C1.98909 6.72707 1.98538 6.35885 2.16764 6.17481C2.35283 5.98782 2.73001 5.99096 3.49044 5.99731H3.49048C3.64414 5.99859 3.81345 6 4 6H5.99993L6 3H10L9.99993 6H26V3H30V6ZM3.99996 16V36H32V16H3.99996ZM32 12H3.99996V8H32V12ZM28 22H18V32H28V22Z" fill="black" fill-opacity="0.54"/>
</svg>
