<svg width="28" height="28" viewBox="0 0 34 32" fill="none" xmlns="http://www.w3.org/2000/svg">
<g clip-path="url(#clip0)">
<path d="M31.3921 0.334251H9.29735C8.00643 0.334251 6.96484 1.39693 6.96484 2.69364V5.85373C6.95167 6.12098 6.86891 6.54689 6.4704 6.54531C5.59802 6.54109 4.32977 6.5353 2.77634 6.5295C0.784882 6.52001 0.182384 7.94693 0 8.92368V26.0482C0 26.0482 0.0600918 27.7103 0.464393 28.7018C0.664699 29.1424 0.918244 29.5868 1.23504 30.0522C1.7453 30.8013 2.52491 31.1972 3.16378 31.4064L3.1622 31.4069C3.1622 31.4069 3.46845 31.6521 5.74772 31.7654H31.6346C32.809 31.642 33.7246 30.6526 33.7246 29.4308V2.69364C33.7241 1.39693 32.6831 0.334251 31.3921 0.334251ZM7.07659 23.9508C7.07659 24.6814 6.86785 26.6481 6.82621 27.0334C6.80776 27.1378 6.79511 27.2353 6.77297 27.345L6.77455 27.3439C6.77455 27.3439 6.58268 28.5494 6.26535 29.3965C6.14043 29.7539 5.87739 29.8851 5.73771 29.9294C4.19799 30.1972 3.39571 29.6553 3.21543 29.5077C2.9893 29.2932 2.74682 28.9948 2.51173 28.5468C2.5033 28.532 2.49328 28.521 2.4859 28.5057C2.46903 28.473 2.45902 28.4414 2.4432 28.4087C2.40367 28.328 2.36414 28.2569 2.32513 28.1683C2.3051 28.1214 2.29403 28.0782 2.28032 28.0339C1.81698 26.9681 1.60824 25.9897 1.61246 24.8085C1.61668 23.4527 1.65674 10.9331 1.65674 10.9331C1.65674 10.9331 1.54973 8.06605 3.45949 8.07765C5.07933 8.08767 6.21106 8.09452 6.52048 8.0961H6.52206C6.57636 8.09715 6.61325 8.09715 6.61325 8.09715H6.62643C6.78668 8.11297 7.07238 8.21734 7.07501 8.77503L7.07396 9.09236H7.07712L7.07659 23.9508ZM31.6346 27.9085C31.6346 29.0755 31.1271 29.4308 29.9949 29.4308L10.7236 29.5077C10.1517 29.5051 9.32636 29.5172 8.64216 29.5077C7.79254 29.5151 8.56996 30.3971 8.56996 29.3965C8.5921 28.9242 8.73627 28.2901 8.81481 27.9085C8.83484 27.8183 8.90708 27.7298 8.925 27.6386C8.93185 27.6075 8.93724 27.5859 8.93724 27.5859C9.16918 26.4141 9.24331 25.3029 9.24331 25.3029C9.25333 25.1363 9.29228 24.9914 9.29228 24.8986C9.29228 24.8069 9.29228 24.7584 9.29228 24.7584L9.29735 3.98667C9.29735 2.82595 9.27518 2.69364 10.4064 2.69364C10.4064 2.69364 28.8631 2.69364 29.9949 2.69364C31.1266 2.69364 31.6346 2.82595 31.6346 3.98667V27.9085Z" fill="black" fill-opacity="0.54"/>
<path d="M12.7742 5.91479H28.0433C28.0433 5.91479 29.116 5.79455 29.1039 7.01464C29.1039 7.46167 29.0796 8.11523 28.0101 8.11523C26.9416 8.11523 12.7747 8.11523 12.7747 8.11523C12.7747 8.11523 11.9629 7.95737 11.9883 7.01317C11.9993 6.48205 12.2091 5.91479 12.7742 5.91479Z" fill="black" fill-opacity="0.54"/>
<path d="M12.7742 10.3222H28.0433C28.0433 10.3222 29.116 10.202 29.1039 11.4224C29.1039 11.87 29.0796 12.5226 28.0101 12.5226C26.9416 12.5226 12.7747 12.5226 12.7747 12.5226C12.7747 12.5226 11.9629 12.3648 11.9883 11.4209C11.9993 10.89 12.2091 10.3222 12.7742 10.3222Z" fill="black" fill-opacity="0.54"/>
<path d="M12.6425 14.7296H27.9126C27.9126 14.7296 28.9853 14.6094 28.9727 15.8298C28.9727 16.2767 28.9484 16.9301 27.8794 16.9301C26.8109 16.9301 12.6425 16.9301 12.6425 16.9301C12.6425 16.9301 11.8318 16.7722 11.856 15.8284C11.8692 15.2974 12.0779 14.7296 12.6425 14.7296Z" fill="black" fill-opacity="0.54"/>
<path d="M12.6425 19.137H27.9126C27.9126 19.137 28.9853 19.0168 28.9727 20.2372C28.9727 20.6834 28.9484 21.3375 27.8794 21.3375C26.8109 21.3375 12.6425 21.3375 12.6425 21.3375C12.6425 21.3375 11.8318 21.1796 11.856 20.2365C11.8692 19.7056 12.0779 19.137 12.6425 19.137Z" fill="black" fill-opacity="0.54"/>
<path d="M12.6425 23.5444H27.9126C27.9126 23.5444 28.9853 23.4242 28.9727 24.6446C28.9727 25.0915 28.9484 25.7449 27.8794 25.7449C26.8109 25.7449 12.6425 25.7449 12.6425 25.7449C12.6425 25.7449 11.8318 25.5885 11.856 24.6439C11.8692 24.113 12.0779 23.5444 12.6425 23.5444Z" fill="black" fill-opacity="0.54"/>
</g>
<defs>
<clipPath id="clip0">
<rect width="34" height="31.9394" fill="white"/>
</clipPath>
</defs>
</svg>
